<svg width="520" height="520" viewBox="0 0 520 520" fill="none" xmlns="http://www.w3.org/2000/svg">
<g clip-path="url(#clip0_325_11)">
<path d="M0 177.734C0 79.5744 79.5744 0 177.734 0H342.266C440.426 0 520 79.5744 520 177.734V342.266C520 440.426 440.426 520 342.266 520H177.734C79.5744 520 0 440.426 0 342.266V177.734Z" fill="white"/>
<path d="M59.9517 242.163V206.256H203.114V239.846L200.798 242.163L115.085 320.925H203.114V356.6H59.9517V323.01L62.2682 320.925L147.98 242.163H59.9517Z" fill="black"/>
<path d="M252.627 163.4V206.256H295.715C295.715 216.14 292.163 224.634 285.059 231.738C278.109 238.688 269.692 242.163 259.808 242.163H252.627V281.544C252.627 292.354 256.488 301.621 264.21 309.342C271.931 317.064 281.198 320.925 292.008 320.925C293.244 320.925 294.479 320.848 295.715 320.693V356.6C294.479 356.6 293.244 356.6 292.008 356.6C277.646 356.6 264.518 352.893 252.627 345.481C241.816 338.685 233.168 329.728 226.682 318.609C220.195 307.335 216.952 294.98 216.952 281.544V163.4H252.627Z" fill="black"/>
<path d="M424.142 217.375C429.238 220.464 433.871 224.093 438.041 228.263C452.713 242.935 460.048 260.695 460.048 281.544V356.6H424.142V281.544C424.142 270.579 420.358 261.235 412.791 253.514C405.069 245.946 395.726 242.163 384.761 242.163C373.95 242.163 364.684 245.946 356.962 253.514C349.24 261.235 345.379 270.579 345.379 281.544V356.6H309.704V281.544C309.704 267.953 312.948 255.598 319.434 244.479C325.92 233.205 334.569 224.171 345.379 217.375C357.271 209.963 370.398 206.256 384.761 206.256C399.278 206.256 412.405 209.963 424.142 217.375Z" fill="black"/>
</g>
<defs>
<clipPath id="clip0_325_11">
<rect width="520" height="520" fill="white"/>
</clipPath>
</defs>
</svg>
