<svg width="1024" height="1024" viewBox="0 0 1024 1024" fill="none" xmlns="http://www.w3.org/2000/svg">
<path d="M200.321 960.138C160.321 983.232 110.321 954.364 110.321 908.176V488.469C110.321 441.436 161.975 412.69 201.945 437.48L552.413 654.844C590.953 678.746 590.064 735.119 550.789 757.795L200.321 960.138Z" stroke="#0F73C3" stroke-width="50"/>
<path fill-rule="evenodd" clip-rule="evenodd" d="M668.701 689.718C649.55 700.775 625.869 700.402 607.077 688.746L138.697 398.253C121.053 387.31 110.321 368.024 110.321 347.263V115.824C110.321 69.6358 160.321 40.7683 200.321 63.8623L886.518 460.039C926.518 483.133 926.518 540.868 886.518 563.962L668.701 689.718Z" stroke="#0F73C3" stroke-width="50"/>
</svg>
